<svg xmlns="http://www.w3.org/2000/svg" viewBox="0 0 845.87 561.04"><defs><style>.cls-1{isolation:isolate;}.cls-2{fill:#bccddd;}.cls-2,.cls-3{opacity:0.25;}.cls-15,.cls-3{fill:#b2c2d1;}.cls-4{fill:#fdc7ff;}.cls-5{fill:#ff9fff;}.cls-6{fill:#e07fe5;}.cls-7{fill:#999;}.cls-8{fill:#3b57ff;}.cls-9{fill:#7ab8fc;}.cls-10{fill:#1d33ff;}.cls-11{fill:#f6f6f6;}.cls-12,.cls-13{fill:#8abaff;}.cls-13,.cls-14{opacity:0.09;mix-blend-mode:multiply;}.cls-14{fill:#464648;}</style></defs><title>LandingPage_libraryIcon</title><g class="cls-1"><g id="Layer_1" data-name="Layer 1"><path class="cls-2" d="M499.68,212C492,190.1,479,176.66,474.31,171.55,410.27,101,403.73,28.23,345,13c-32.63-8.46-36.68,12.44-105,7-21.69-1.73-36.86-5.08-60-1-5.23.92-30.69,5.71-60.66,25.67-83,55.28-233.8,152.52-218.5,249.94,33.63,214.05,357.27,246,491.09,161.69C485.71,397.21,505.84,303,506.87,259.77A134.54,134.54,0,0,0,499.68,212Z" transform="translate(100.24 -10.96)"/><path class="cls-3" d="M685.46,104a134.5,134.5,0,0,0-40-27.1c-20.69-8.91-38.7-8.5-46.92-8.69C528.59,66.62,510.94,35.68,461,41c-35.89,3.82-75.42,25-98,57-35.19,49.91-8.41,96.75-49,137-19.69,19.53-29.83,12.31-54.44,29.4-62.28,43.24-100.42,160.92-51,230.31,21.32,29.94,55.41,54.11,104.77,65.59,244.86,57,388.56-105.23,424.09-245.41C765.07,205.77,716.58,134.08,685.46,104Z" transform="translate(100.24 -10.96)"/><polygon class="cls-4" points="490.55 193.21 504.95 229.3 549.12 216.35 490.55 193.21"/><polygon class="cls-5" points="498.44 244.22 470.65 295.44 526.29 283.72 511.8 245.15 498.44 244.22"/><polygon class="cls-5" points="504.95 229.3 561.7 211.47 540.62 252.52 504.95 229.3"/><polygon class="cls-4" points="526.29 283.72 540.62 252.52 504.95 229.3 526.29 283.72"/><polygon class="cls-6" points="415.48 223.22 490.55 193.21 517.3 260.22 415.48 223.22"/><polygon class="cls-4" points="525.41 207.05 556.06 180.81 561.7 211.47 547.58 216.05 525.41 207.05"/><polygon class="cls-5" points="556.06 180.81 569.23 193.23 558.65 194.86 556.06 180.81"/><polygon class="cls-4" points="327.47 44.32 316.3 78.17 275.14 68.79 327.47 44.32"/><polygon class="cls-5" points="323.1 91.46 351.42 136.79 299.82 129.19 310.93 93.07 323.1 91.46"/><polygon class="cls-5" points="316.3 78.17 263.36 65.04 284.96 101.43 316.3 78.17"/><polygon class="cls-4" points="299.82 129.19 284.96 101.43 316.3 78.17 299.82 129.19"/><polygon class="cls-6" points="372.26 67.59 327.47 44.32 306.74 107.17 372.26 67.59"/><polygon class="cls-4" points="296.32 58.95 266.79 36.65 263.36 65.04 276.54 68.43 296.32 58.95"/><polygon class="cls-5" points="266.79 36.65 255.44 48.76 265.22 49.66 266.79 36.65"/><path class="cls-7" d="M139.66,172.51a17.33,17.33,0,0,0-4.29.56c0-.61,0-1.22,0-1.83a33.13,33.13,0,0,0-65.14-8.56A22.73,22.73,0,1,0,62,207.29l1.65.2h76a17.49,17.49,0,0,0,0-35Z" transform="translate(100.24 -10.96)"/><path class="cls-7" d="M618.13,161.25a16.3,16.3,0,0,0-16.3-16.3,16,16,0,0,0-3,.28,27.28,27.28,0,0,0-33.5-21.7,39.91,39.91,0,0,0-78.46,10.3c0,.74,0,1.48.06,2.21a21.05,21.05,0,1,0-5.17,41.46h24.84v.05h95.42A16.3,16.3,0,0,0,618.13,161.25Z" transform="translate(100.24 -10.96)"/><path class="cls-7" d="M143,308.22a15.1,15.1,0,0,1,15.1-15.1,14.55,14.55,0,0,1,2.74.26,25.23,25.23,0,0,1,31-20.11,37,37,0,0,1,72.71,9.55q0,1-.06,2a19.51,19.51,0,1,1,4.79,38.42h-23v.05H157.93v0A15.09,15.09,0,0,1,143,308.22Z" transform="translate(100.24 -10.96)"/><path class="cls-8" d="M363,380.87a41,41,0,0,1-82,0C281,358.22,363,358.22,363,380.87Z" transform="translate(100.24 -10.96)"/><path class="cls-9" d="M46,374.17l225.61,2.94s9.59,4.35,13.77,5.94c38.12-8.88,74.7,0,74.7,0l10.67-5.87,238.2-3S604.49,341,584.83,307c0,0-187.31,8.91-264.11,53.25,0,0-162.05-58.32-249.41-63.55C71.31,296.67,46,332.42,46,374.17Z" transform="translate(100.24 -10.96)"/><path class="cls-10" d="M608.9,374.17H360.64a5.5,5.5,0,0,0-5.34,4.62,35.14,35.14,0,0,1-69.85-1.41,4.36,4.36,0,0,0-4.49-3.21H32v17.75H271.75a51.84,51.84,0,0,0,97.4,0H608.9Z" transform="translate(100.24 -10.96)"/><path class="cls-11" d="M84.6,281.77l4-2.91s123.18,22.4,232.17,81.36c0,0,3.6,2.8-1.45.56C291.72,348.55,191.72,300.43,84.6,281.77Z" transform="translate(100.24 -10.96)"/><path class="cls-12" d="M94.49,273.76l4.18-2.6s116.55,20.91,230.25,93.16c0,0,3.37,3.08-1.5.44C300.93,350.39,212.27,297.78,94.49,273.76Z" transform="translate(100.24 -10.96)"/><path class="cls-12" d="M75.85,290.22l3-3.06s135.79,17.3,244,77.72c0,0,2.55,2.31-2.34-.28C293.07,350.13,219.66,315.21,75.85,290.22Z" transform="translate(100.24 -10.96)"/><path class="cls-13" d="M79.51,321.08s109,9.82,219.87,41.84c0,0-145.58-33.79-221.65-36.93A15.36,15.36,0,0,1,79.51,321.08Z" transform="translate(100.24 -10.96)"/><path class="cls-13" d="M74.42,345.34s97.27-.13,229.78,23.3c0,0-127.16-18.62-231.27-19.64C73.57,345.87,74.42,345.34,74.42,345.34Z" transform="translate(100.24 -10.96)"/><path class="cls-13" d="M72.93,362.92s188.73,4.12,226.45,8.16c0,0-212.26-7.13-227.12-5.94Z" transform="translate(100.24 -10.96)"/><path class="cls-12" d="M580.5,301.22l-3.59-3.36s-124.94,8-240,54c0,0-3.9,2.37,1.38.72C367.05,343.61,471.94,307.37,580.5,301.22Z" transform="translate(100.24 -10.96)"/><path class="cls-12" d="M560.63,282.18l-4-2.82s-117.53,14.46-235,80.33c0,0-3.54,2.89,1.46.52C350.29,347.33,441.71,299.68,560.63,282.18Z" transform="translate(100.24 -10.96)"/><path class="cls-13" d="M574.47,322.86s-110.19,8-221,40.06c0,0,145.58-33.79,221.66-36.93Z" transform="translate(100.24 -10.96)"/><path class="cls-13" d="M580,350s-97.27-.13-229.79,23.3c0,0,127.17-18.62,231.28-19.64C580.85,350.52,580,350,580,350Z" transform="translate(100.24 -10.96)"/><path class="cls-14" d="M575.8,335.51s-170.23,17.42-224.86,32.06c0,0,104.55-18.84,225.79-29.94Z" transform="translate(100.24 -10.96)"/><path class="cls-15" d="M-195,42" transform="translate(100.24 -10.96)"/></g></g></svg>