<svg xmlns="http://www.w3.org/2000/svg" xmlns:xlink="http://www.w3.org/1999/xlink" viewBox="0 0 496.91 411"><defs><style>.cls-1,.cls-46{fill:none;}.cls-2{isolation:isolate;}.cls-3{fill:#475a70;}.cls-3,.cls-4{opacity:0.25;}.cls-4{fill:#628ebf;}.cls-5,.cls-6{fill:url(#Degradado_sin_nombre_64);}.cls-11,.cls-47,.cls-6{opacity:0.7;}.cls-11,.cls-12,.cls-14,.cls-17,.cls-31,.cls-33,.cls-35,.cls-36,.cls-38,.cls-42,.cls-43,.cls-45,.cls-46,.cls-52,.cls-53,.cls-6,.cls-7,.cls-9{mix-blend-mode:multiply;}.cls-7{fill:url(#Degradado_sin_nombre_64-3);}.cls-8{fill:url(#Degradado_sin_nombre_64-4);}.cls-9{fill:url(#Degradado_sin_nombre_64-5);}.cls-10,.cls-11{fill:url(#Degradado_sin_nombre_64-6);}.cls-12{fill:url(#Degradado_sin_nombre_64-8);}.cls-13{fill:url(#Degradado_sin_nombre_64-9);}.cls-14{fill:url(#Degradado_sin_nombre_64-10);}.cls-15{fill:#ea7a00;}.cls-16{fill:url(#Degradado_sin_nombre_64-11);}.cls-17,.cls-21,.cls-42{fill:#003aa5;}.cls-18,.cls-33{fill:#c2e1fe;}.cls-19,.cls-52,.cls-53{fill:#ffbe00;}.cls-20{fill:#898989;}.cls-22{fill:url(#Degradado_sin_nombre_64-12);}.cls-23{fill:url(#Degradado_sin_nombre_64-13);}.cls-24{fill:#00a33a;}.cls-25{fill:url(#Degradado_sin_nombre_64-14);}.cls-26{fill:#00a00b;}.cls-27{fill:url(#Degradado_sin_nombre_64-15);}.cls-28{fill:url(#Degradado_sin_nombre_64-16);}.cls-29{fill:url(#Degradado_sin_nombre_64-17);}.cls-30{fill:#00bc04;}.cls-31{fill:#093;}.cls-32{fill:#e3f1fe;}.cls-34{fill:#f9f9f9;}.cls-35,.cls-36,.cls-39,.cls-43{fill:#259aff;}.cls-36,.cls-42,.cls-54,.cls-55{opacity:0.5;}.cls-37{fill:#224cff;}.cls-40{fill:#005493;}.cls-41{fill:#0f50b7;}.cls-43{opacity:0.2;}.cls-44{fill:url(#Degradado_sin_nombre_64-18);}.cls-45{opacity:0.8;fill:url(#Degradado_sin_nombre_64-19);}.cls-46{stroke:#ffbe00;stroke-miterlimit:10;stroke-width:0.5px;}.cls-46,.cls-52{opacity:0.3;}.cls-48{clip-path:url(#clip-path);}.cls-49,.cls-54{fill:#ffe6b3;}.cls-49{opacity:0.1;}.cls-50{fill:url(#Degradado_sin_nombre_9);}.cls-51{fill:#fccc54;}.cls-55{fill:#fce8c5;}.cls-56{fill:url(#Degradado_sin_nombre_9-2);}.cls-57{fill:url(#Degradado_sin_nombre_9-3);}.cls-58{fill:url(#Degradado_sin_nombre_9-4);}.cls-59{fill:url(#Degradado_sin_nombre_9-5);}</style><linearGradient id="Degradado_sin_nombre_64" x1="198.76" y1="195.65" x2="313.87" y2="352.62" gradientTransform="translate(94.12 -117.64) rotate(23.17)" gradientUnits="userSpaceOnUse"><stop offset="0" stop-color="#fdda42"/><stop offset="1" stop-color="#e5a003"/></linearGradient><linearGradient id="Degradado_sin_nombre_64-3" x1="259.37" y1="351.7" x2="259.37" y2="220.37" xlink:href="#Degradado_sin_nombre_64"/><linearGradient id="Degradado_sin_nombre_64-4" x1="112.34" y1="171.42" x2="257.06" y2="368.78" gradientTransform="matrix(1, 0, 0, 1, 0, 0)" xlink:href="#Degradado_sin_nombre_64"/><linearGradient id="Degradado_sin_nombre_64-5" x1="188.54" y1="367.62" x2="188.54" y2="202.51" gradientTransform="matrix(1, 0, 0, 1, 0, 0)" xlink:href="#Degradado_sin_nombre_64"/><linearGradient id="Degradado_sin_nombre_64-6" x1="394.26" y1="111.99" x2="509.37" y2="268.97" gradientTransform="matrix(-0.92, 0.39, 0.39, 0.92, 769.81, -117.64)" xlink:href="#Degradado_sin_nombre_64"/><linearGradient id="Degradado_sin_nombre_64-8" x1="454.87" y1="268.05" x2="454.87" y2="136.72" gradientTransform="matrix(-0.92, 0.39, 0.39, 0.92, 769.81, -117.64)" xlink:href="#Degradado_sin_nombre_64"/><linearGradient id="Degradado_sin_nombre_64-9" x1="324.99" y1="171.42" x2="469.71" y2="368.78" gradientTransform="matrix(-1, 0, 0, 1, 863.93, 0)" xlink:href="#Degradado_sin_nombre_64"/><linearGradient id="Degradado_sin_nombre_64-10" x1="401.19" y1="367.62" x2="401.19" y2="202.51" gradientTransform="matrix(-1, 0, 0, 1, 863.93, 0)" xlink:href="#Degradado_sin_nombre_64"/><linearGradient id="Degradado_sin_nombre_64-11" x1="42.68" y1="325.25" x2="57.05" y2="325.25" gradientTransform="matrix(1, 0, 0, 1, 0, 0)" xlink:href="#Degradado_sin_nombre_64"/><linearGradient id="Degradado_sin_nombre_64-12" x1="197.4" y1="142.67" x2="188.05" y2="171.56" gradientTransform="matrix(1, 0, 0, 1, 0, 0)" xlink:href="#Degradado_sin_nombre_64"/><linearGradient id="Degradado_sin_nombre_64-13" x1="302.52" y1="146.82" x2="310.16" y2="174.01" gradientTransform="matrix(1, 0, 0, 1, 0, 0)" xlink:href="#Degradado_sin_nombre_64"/><linearGradient id="Degradado_sin_nombre_64-14" x1="249.14" y1="145.92" x2="248.72" y2="174.38" gradientTransform="matrix(1, 0, 0, 1, 0, 0)" xlink:href="#Degradado_sin_nombre_64"/><linearGradient id="Degradado_sin_nombre_64-15" x1="260.31" y1="185.07" x2="260.31" y2="221.62" gradientTransform="matrix(1, 0, 0, 1, 0, 0)" xlink:href="#Degradado_sin_nombre_64"/><linearGradient id="Degradado_sin_nombre_64-16" x1="321.33" y1="185.07" x2="321.33" y2="221.62" gradientTransform="matrix(1, 0, 0, 1, 0, 0)" xlink:href="#Degradado_sin_nombre_64"/><linearGradient id="Degradado_sin_nombre_64-17" x1="382.32" y1="185.07" x2="382.32" y2="221.62" gradientTransform="matrix(1, 0, 0, 1, 0, 0)" xlink:href="#Degradado_sin_nombre_64"/><linearGradient id="Degradado_sin_nombre_64-18" x1="432.28" y1="357.27" x2="472.18" y2="357.27" gradientTransform="translate(732 -146.6) rotate(80.73)" xlink:href="#Degradado_sin_nombre_64"/><linearGradient id="Degradado_sin_nombre_64-19" x1="362.87" y1="345.27" x2="396.45" y2="345.27" gradientTransform="matrix(1, 0, 0, 1, 0, 0)" xlink:href="#Degradado_sin_nombre_64"/><clipPath id="clip-path" transform="translate(-72.57 -12)"><circle class="cls-1" cx="452.23" cy="357.27" r="16.79"/></clipPath><linearGradient id="Degradado_sin_nombre_9" x1="1649.29" y1="373.05" x2="1684.98" y2="373.05" gradientTransform="matrix(1, 0, 0, -1, -1174.45, 746.1)" gradientUnits="userSpaceOnUse"><stop offset="0" stop-color="#fec008"/><stop offset="1" stop-color="#fe9c03"/></linearGradient><linearGradient id="Degradado_sin_nombre_9-2" x1="1606.65" y1="373.05" x2="1642.34" y2="373.05" gradientTransform="matrix(1, 0, 0, -1, -1089.17, 746.1)" xlink:href="#Degradado_sin_nombre_9"/><linearGradient id="Degradado_sin_nombre_9-3" x1="1612.45" y1="364.7" x2="1648.14" y2="364.7" gradientTransform="matrix(1, 0, 0, -1, -1100.76, 729.4)" xlink:href="#Degradado_sin_nombre_9"/><linearGradient id="Degradado_sin_nombre_9-4" x1="1604.95" y1="356.35" x2="1640.64" y2="356.35" gradientTransform="matrix(1, 0, 0, -1, -1085.76, 712.7)" xlink:href="#Degradado_sin_nombre_9"/><linearGradient id="Degradado_sin_nombre_9-5" x1="1612.32" y1="348" x2="1648.01" y2="348" gradientTransform="matrix(1, 0, 0, -1, -1100.51, 696)" xlink:href="#Degradado_sin_nombre_9"/></defs><title>LandingPage_Marketplace</title><g class="cls-2"><g id="Layer_1" data-name="Layer 1"><path class="cls-3" d="M563.58,184c-28.71-81.9-129.67-49.83-190.92-55.52-66-6.13-33.18-48.33-119.25-80.9C174.52,17.75,53,110,75.24,251.43,102.66,426,366.58,452.06,475.71,383.29c76.47-48.19,92.89-125,93.73-160.27A109.77,109.77,0,0,0,563.58,184Z" transform="translate(-72.57 -12)"/><path class="cls-4" d="M501.42,41.38a110.08,110.08,0,0,0-32.65-22.1C389.06-15.06,344.28,80.94,298.61,122.15c-49.18,44.38-60.22,13.07-144.5,50S51.83,379.48,197.94,413.46c199.69,46.45,316.87-85.81,345.85-200.13C566.34,124.35,526.8,65.89,501.42,41.38Z" transform="translate(-72.57 -12)"/><path class="cls-5" d="M273.56,288.57c1.8-10.91-1.42-22.62-9.73-30.19-4.95-4.5-13.95-6.82-15.5-14.11-1.33-6.28,2.32-12.5,3.2-18.63a35.09,35.09,0,0,0-10.36-29.81c-5.37-5.14-13.1-7.64-17.4-13.91-4-5.79-4.54-13.09-5.89-19.78-1.95-9.64-8.62-23.47-20.78-20.61-10.29,2.42-13.74,15-13.91,24.17a45.55,45.55,0,0,0,.86,9.74c.73,3.7,2.32,7.22,2.84,10.95.56,4,.77,8.55-.33,12.4-1,3.49-2.69,6.74-3.67,10.24-3.6,12.87-.15,26.61,6.16,38.07,4.2,7.63,7.24,13.88,6.28,22.83-.74,6.94-2.68,13.81-2.15,20.85,1,13.88,11.21,24.55,23.45,30a1.31,1.31,0,0,0,1,0C241.28,328,268.45,313.2,273.56,288.57Z" transform="translate(-72.57 -12)"/><path class="cls-6" d="M273.56,288.57c1.8-10.91-1.42-22.62-9.73-30.19-4.95-4.5-13.95-6.82-15.5-14.11-1.33-6.28,2.32-12.5,3.2-18.63a35.09,35.09,0,0,0-10.36-29.81c-5.37-5.14-13.1-7.64-17.4-13.91-4-5.79-4.54-13.09-5.89-19.78-1.95-9.64-8.62-23.47-20.78-20.61-10.29,2.42-13.74,15-13.91,24.17a45.55,45.55,0,0,0,.86,9.74c.73,3.7,2.32,7.22,2.84,10.95.56,4,.77,8.55-.33,12.4-1,3.49-2.69,6.74-3.67,10.24-3.6,12.87-.15,26.61,6.16,38.07,4.2,7.63,7.24,13.88,6.28,22.83-.74,6.94-2.68,13.81-2.15,20.85,1,13.88,11.21,24.55,23.45,30a1.31,1.31,0,0,0,1,0C241.28,328,268.45,313.2,273.56,288.57Z" transform="translate(-72.57 -12)"/><path class="cls-7" d="M244.55,336.36q-5.45-20.61-10.83-41.25l0,0a137.26,137.26,0,0,0,13.38-36c.37-1.64-2.23-2-2.59-.36a134.28,134.28,0,0,1-11.8,32.62q-4.56-17.48-9.08-35a1.31,1.31,0,0,0,.23-.32,161.06,161.06,0,0,0,14.27-37c.41-1.63-2.18-2-2.59-.35a158.87,158.87,0,0,1-12.87,34q-4.24-16.4-8.44-32.79A174.65,174.65,0,0,0,224,193.69c.45-1.6-1.95-2.64-2.4-1a174.84,174.84,0,0,1-8.39,23.23q-4.18-16.33-8.35-32.67a1.4,1.4,0,0,0,.33-.42q4.08-8.22,7.42-16.75c.61-1.57-1.79-2.61-2.4-1q-2.88,7.35-6.31,14.43-2.78-10.94-5.57-21.89c-.41-1.61-3-1.3-2.6.33q3.84,15.12,7.7,30.23c-3.83-4-7.78-7.93-11.88-11.69-1.24-1.14-2.87.91-1.63,2q7.74,7.1,14.83,14.84,3.39,13.31,6.82,26.61a.89.89,0,0,0,.07.28q1.9,7.44,3.82,14.87a151.36,151.36,0,0,1-26-22.42c-1.14-1.23-3.19.39-2,1.63a154.81,154.81,0,0,0,29,24.61q4.89,19,9.83,37.9l-22.9-14.89c-1.4-.92-3,1.12-1.63,2l25.5,16.59q7.4,28.41,14.87,56.79C242.55,339,245,338,244.55,336.36Z" transform="translate(-72.57 -12)"/><path class="cls-8" d="M270.75,306.21c-3.31-13.5-12.83-25.44-26.17-30.07-8-2.76-19.5-1-24.89-8.65-4.65-6.6-3.51-15.59-5.52-23.11A44.15,44.15,0,0,0,187.44,215c-8.75-3.29-18.91-2.35-27-7.48-7.45-4.72-11.73-12.87-16.6-19.94-7-10.17-21.57-22.86-34.2-13.55-10.7,7.89-8.45,24.18-4.13,34.82a58.42,58.42,0,0,0,5.8,10.83c2.68,3.92,6.26,7.21,8.71,11.26,2.6,4.29,5.12,9.5,5.75,14.5.57,4.52.22,9.12.82,13.65,2.21,16.64,13,30.83,26,40.95,8.63,6.74,15.24,12.46,18.55,23.28,2.58,8.4,3.74,17.29,7.83,25.17,8.05,15.52,25.1,22.83,41.93,23a1.54,1.54,0,0,0,1.16-.5C253,367.78,277,337.22,270.75,306.21Z" transform="translate(-72.57 -12)"/><path class="cls-9" d="M260.85,375.8q-16.47-21.14-32.9-42.32s0,0,0-.06a172.75,172.75,0,0,0-2.33-48.2c-.39-2.08-3.56-1.2-3.17.88A169.05,169.05,0,0,1,225,329.63q-13.9-17.94-27.79-35.92a1.78,1.78,0,0,0,.12-.48,202.94,202.94,0,0,0-1.82-49.85c-.33-2.08-3.5-1.2-3.17.87a199,199,0,0,1,1.94,45.67q-13-16.85-26-33.72a218.39,218.39,0,0,0-1.69-35.14c-.27-2.07-3.56-2.1-3.29,0a218.62,218.62,0,0,1,1.79,31q-12.92-16.8-25.8-33.63a1.64,1.64,0,0,0,.16-.65q.68-11.52.3-23c-.07-2.12-3.36-2.13-3.29,0q.31,9.9-.15,19.8Q127.66,203.28,119,192c-1.27-1.66-4.13,0-2.84,1.66q11.89,15.58,23.84,31.14-9.63-4.12-19.51-7.64c-2-.7-2.86,2.48-.87,3.18q12.45,4.38,24.48,9.82,10.51,13.69,21,27.38a1.3,1.3,0,0,0,.22.29l11.78,15.3A190.39,190.39,0,0,1,136,260.06c-1.92-.86-3.49,2-1.55,2.9a194.16,194.16,0,0,0,45.72,14.09q15,19.5,30.1,38.95l-33.83-5.9c-2.07-.36-3,2.81-.87,3.18l37.67,6.57q22.6,29.16,45.28,58.28C259.83,379.8,262.14,377.45,260.85,375.8Z" transform="translate(-72.57 -12)"/><path class="cls-10" d="M377.72,288.57c-1.8-10.91,1.42-22.62,9.73-30.19,4.95-4.5,13.95-6.82,15.5-14.11,1.33-6.28-2.32-12.5-3.2-18.63a35.09,35.09,0,0,1,10.36-29.81c5.37-5.14,13.1-7.64,17.4-13.91,4-5.79,4.54-13.09,5.9-19.78,1.94-9.64,8.61-23.47,20.77-20.61,10.29,2.42,13.74,15,13.91,24.17a45.55,45.55,0,0,1-.86,9.74c-.73,3.7-2.32,7.22-2.84,10.95-.56,4-.77,8.55.33,12.4,1,3.49,2.69,6.74,3.67,10.24,3.6,12.87.15,26.61-6.16,38.07C458,254.73,455,261,456,269.93c.74,6.94,2.68,13.81,2.15,20.85-1,13.88-11.21,24.55-23.45,30a1.31,1.31,0,0,1-1,0C410,328,382.83,313.2,377.72,288.57Z" transform="translate(-72.57 -12)"/><path class="cls-11" d="M377.72,288.57c-1.8-10.91,1.42-22.62,9.73-30.19,4.95-4.5,13.95-6.82,15.5-14.11,1.33-6.28-2.32-12.5-3.2-18.63a35.09,35.09,0,0,1,10.36-29.81c5.37-5.14,13.1-7.64,17.4-13.91,4-5.79,4.54-13.09,5.9-19.78,1.94-9.64,8.61-23.47,20.77-20.61,10.29,2.42,13.74,15,13.91,24.17a45.55,45.55,0,0,1-.86,9.74c-.73,3.7-2.32,7.22-2.84,10.95-.56,4-.77,8.55.33,12.4,1,3.49,2.69,6.74,3.67,10.24,3.6,12.87.15,26.61-6.16,38.07C458,254.73,455,261,456,269.93c.74,6.94,2.68,13.81,2.15,20.85-1,13.88-11.21,24.55-23.45,30a1.31,1.31,0,0,1-1,0C410,328,382.83,313.2,377.72,288.57Z" transform="translate(-72.57 -12)"/><path class="cls-12" d="M406.73,336.36q5.44-20.61,10.83-41.25l0,0a137.26,137.26,0,0,1-13.38-36c-.36-1.64,2.23-2,2.59-.36a134.28,134.28,0,0,0,11.8,32.62q4.56-17.48,9.08-35a1.31,1.31,0,0,1-.23-.32,161.06,161.06,0,0,1-14.27-37c-.41-1.63,2.18-2,2.59-.35a158.87,158.87,0,0,0,12.87,34q4.25-16.4,8.44-32.79a174.65,174.65,0,0,1-9.75-26.23c-.45-1.6,2-2.64,2.4-1a174.84,174.84,0,0,0,8.39,23.23q4.19-16.33,8.35-32.67a1.4,1.4,0,0,1-.33-.42q-4.08-8.22-7.42-16.75c-.61-1.57,1.79-2.61,2.4-1q2.88,7.35,6.31,14.43,2.79-10.94,5.57-21.89c.41-1.61,3-1.3,2.6.33q-3.84,15.12-7.7,30.23c3.83-4,7.78-7.93,11.88-11.69,1.24-1.14,2.87.91,1.63,2q-7.74,7.1-14.83,14.84-3.39,13.31-6.82,26.61a.89.89,0,0,1-.07.28q-1.9,7.44-3.82,14.87a151.36,151.36,0,0,0,26-22.42c1.14-1.23,3.19.39,2,1.63a154.49,154.49,0,0,1-29,24.61q-4.89,19-9.83,37.9l22.9-14.89c1.4-.92,3,1.12,1.63,2L424,280.54q-7.39,28.41-14.87,56.79C408.73,339,406.31,338,406.73,336.36Z" transform="translate(-72.57 -12)"/><path class="cls-13" d="M380.53,306.21c3.31-13.5,12.83-25.44,26.18-30.07,7.94-2.76,19.49-1,24.89-8.65,4.64-6.6,3.5-15.59,5.51-23.11A44.15,44.15,0,0,1,463.84,215c8.75-3.29,18.91-2.35,27-7.48,7.45-4.72,11.73-12.87,16.6-19.94,7-10.17,21.57-22.86,34.2-13.55,10.7,7.89,8.45,24.18,4.13,34.82a58.42,58.42,0,0,1-5.8,10.83c-2.68,3.92-6.26,7.21-8.71,11.26-2.6,4.29-5.12,9.5-5.75,14.5-.57,4.52-.22,9.12-.82,13.65-2.21,16.64-13,30.83-25.95,40.95-8.63,6.74-15.24,12.46-18.55,23.28-2.58,8.4-3.73,17.29-7.82,25.17-8.06,15.52-25.11,22.83-41.94,23a1.54,1.54,0,0,1-1.16-.5C398.32,367.78,374.25,337.22,380.53,306.21Z" transform="translate(-72.57 -12)"/><path class="cls-14" d="M390.43,375.8q16.47-21.14,32.9-42.32a.13.13,0,0,0,0-.06,172.75,172.75,0,0,1,2.33-48.2c.39-2.08,3.56-1.2,3.17.88a169.05,169.05,0,0,0-2.49,43.53q13.92-17.94,27.79-35.92a1.78,1.78,0,0,1-.12-.48,202.94,202.94,0,0,1,1.82-49.85c.33-2.08,3.5-1.2,3.17.87a199,199,0,0,0-1.94,45.67q13-16.85,26-33.72a218.39,218.39,0,0,1,1.69-35.14c.27-2.07,3.56-2.1,3.29,0a218.62,218.62,0,0,0-1.79,31q12.91-16.8,25.81-33.63a1.49,1.49,0,0,1-.17-.65q-.67-11.52-.3-23c.07-2.12,3.36-2.13,3.29,0q-.32,9.9.15,19.8,8.63-11.26,17.26-22.55c1.27-1.66,4.13,0,2.84,1.66q-11.9,15.58-23.84,31.14,9.63-4.12,19.51-7.64c2-.7,2.86,2.48.87,3.18q-12.45,4.38-24.48,9.82-10.52,13.69-21,27.38a1.3,1.3,0,0,1-.22.29l-11.78,15.3a190.39,190.39,0,0,0,41.15-13.06c1.92-.86,3.49,2,1.55,2.9a194.16,194.16,0,0,1-45.72,14.09q-15,19.5-30.1,38.95l33.83-5.9c2.07-.36,3,2.81.87,3.18L438,319.85Q415.42,349,392.75,378.13C391.45,379.8,389.14,377.45,390.43,375.8Z" transform="translate(-72.57 -12)"/><rect class="cls-15" x="35.56" y="303.16" width="106.1" height="62.53" rx="6.32"/><rect class="cls-16" x="42.68" y="318.07" width="14.37" height="14.37" rx="2.05"/><rect class="cls-17" x="75.5" y="314.4" width="61.31" height="3.66"/><rect class="cls-18" x="42.68" y="341.09" width="20.56" height="6.13"/><rect class="cls-18" x="66.93" y="341.09" width="20.56" height="6.13"/><rect class="cls-18" x="91.18" y="341.09" width="20.56" height="6.13"/><rect class="cls-18" x="115.42" y="341.09" width="20.56" height="6.13"/><path class="cls-19" d="M122.43,279.73a13.14,13.14,0,0,1-13.14,13.14A13.14,13.14,0,0,1,122.43,306a13.15,13.15,0,0,1,13.14-13.14A13.14,13.14,0,0,1,122.43,279.73Z" transform="translate(-72.57 -12)"/><rect class="cls-20" x="152.89" y="88.96" width="189.34" height="277.86" rx="8.13"/><rect class="cls-18" x="164.57" y="102.84" width="165.99" height="243.59"/><rect class="cls-17" x="228.77" y="93.63" width="37.6" height="3.19" rx="1.25"/><rect class="cls-17" x="228.12" y="350.53" width="38.9" height="12.68" rx="4.97"/><polygon class="cls-21" points="172.49 172.53 182.89 146.88 155.81 146.88 141.66 172.53 172.49 172.53"/><polygon class="cls-22" points="202.99 172.53 209.09 146.88 182.89 146.88 172.49 172.53 202.99 172.53"/><polygon class="cls-21" points="233.48 172.53 236.18 146.88 209.09 146.88 203 172.53 233.48 172.53"/><polygon class="cls-21" points="355.5 172.53 342.08 146.88 314.63 146.88 324.99 172.53 355.5 172.53"/><polygon class="cls-23" points="324.99 172.53 314.7 146.88 288.74 146.88 294.5 172.54 324.99 172.53"/><polygon class="cls-21" points="294.5 172.54 288.74 146.88 259.83 146.88 264.01 172.53 294.5 172.54"/><polygon class="cls-24" points="172.49 172.53 182.89 146.88 155.81 146.88 141.66 172.53 172.49 172.53"/><polygon class="cls-24" points="233.48 172.53 236.18 146.88 209.09 146.88 203 172.53 233.48 172.53"/><polygon class="cls-24" points="355.5 172.53 342.08 146.88 314.63 146.88 324.99 172.53 355.5 172.53"/><polygon class="cls-24" points="294.5 172.54 288.74 146.88 259.83 146.88 264.01 172.53 294.5 172.54"/><polygon class="cls-25" points="264.01 172.53 259.83 146.88 236.14 146.88 233.48 172.53 264.01 172.53"/><path class="cls-26" d="M141.66,172.53h30.81a0,0,0,0,1,0,0v24.84a12.09,12.09,0,0,1-12.09,12.09h-6.64a12.09,12.09,0,0,1-12.09-12.09V172.53A0,0,0,0,1,141.66,172.53Z"/><path class="cls-27" d="M260.31,221.46h0a15.25,15.25,0,0,1-15.25-15.25V185a.45.45,0,0,1,.45-.45H275.1a.45.45,0,0,1,.45.45v21.23A15.24,15.24,0,0,1,260.31,221.46Z" transform="translate(-72.57 -12)"/><path class="cls-28" d="M321.33,221.46h0a15.25,15.25,0,0,1-15.25-15.25V185a.46.46,0,0,1,.46-.45h29.58a.46.46,0,0,1,.46.45v21.23A15.25,15.25,0,0,1,321.33,221.46Z" transform="translate(-72.57 -12)"/><path class="cls-26" d="M264,172.54H294.5a0,0,0,0,1,0,0v25a12,12,0,0,1-12,12H276a12,12,0,0,1-12-12v-25A0,0,0,0,1,264,172.54Z"/><path class="cls-29" d="M382.31,221.47h0a15.24,15.24,0,0,1-15.24-15.24V185a.45.45,0,0,1,.45-.45h29.59a.45.45,0,0,1,.45.45v21.23A15.24,15.24,0,0,1,382.31,221.47Z" transform="translate(-72.57 -12)"/><path class="cls-30" d="M412.83,221.47h0a15.24,15.24,0,0,1-15.25-15.24V184.55h30.49v21.68A15.24,15.24,0,0,1,412.83,221.47Z" transform="translate(-72.57 -12)"/><path class="cls-24" d="M290.8,221.46h0a15.24,15.24,0,0,1-15.24-15.25V184.53h30.49v21.68A15.25,15.25,0,0,1,290.8,221.46Z" transform="translate(-72.57 -12)"/><path class="cls-21" d="M141.66,172.53h30.81a0,0,0,0,1,0,0v24.84a12.09,12.09,0,0,1-12.09,12.09h-6.64a12.09,12.09,0,0,1-12.09-12.09V172.53A0,0,0,0,1,141.66,172.53Z"/><path class="cls-21" d="M264,172.54H294.5a0,0,0,0,1,0,0v25a12,12,0,0,1-12,12H276a12,12,0,0,1-12-12v-25A0,0,0,0,1,264,172.54Z"/><path class="cls-21" d="M412.83,221.47h0a15.24,15.24,0,0,1-15.25-15.24V184.55h30.49v21.68A15.24,15.24,0,0,1,412.83,221.47Z" transform="translate(-72.57 -12)"/><path class="cls-24" d="M141.66,172.53h30.81a0,0,0,0,1,0,0v24.84a12.09,12.09,0,0,1-12.09,12.09h-6.64a12.09,12.09,0,0,1-12.09-12.09V172.53A0,0,0,0,1,141.66,172.53Z"/><path class="cls-24" d="M264,172.54H294.5a0,0,0,0,1,0,0v25a12,12,0,0,1-12,12H276a12,12,0,0,1-12-12v-25A0,0,0,0,1,264,172.54Z"/><path class="cls-24" d="M412.83,221.47h0a15.24,15.24,0,0,1-15.25-15.24V184.55h30.49v21.68A15.24,15.24,0,0,1,412.83,221.47Z" transform="translate(-72.57 -12)"/><path class="cls-21" d="M290.8,221.46a15.24,15.24,0,0,1-15.24-15.25V184.53" transform="translate(-72.57 -12)"/><path class="cls-31" d="M290.8,221.46h0a15.24,15.24,0,0,1-15.24-15.25V184.53h30.49v21.68A15.25,15.25,0,0,1,290.8,221.46Z" transform="translate(-72.57 -12)"/><rect class="cls-32" x="170.78" y="218.62" width="153.57" height="25.29"/><rect class="cls-32" x="219.59" y="250.91" width="104.76" height="8.02"/><rect class="cls-32" x="219.59" y="263.55" width="104.76" height="8.02"/><rect class="cls-32" x="219.59" y="276.2" width="104.76" height="8.02"/><rect class="cls-32" x="219.59" y="288.85" width="104.76" height="8.02"/><rect class="cls-33" x="164.57" y="102.84" width="165.99" height="36.03"/><rect class="cls-33" x="213.95" y="110.52" width="67.22" height="20.68" rx="3.13"/><rect class="cls-33" x="213.95" y="110.52" width="67.22" height="20.68" rx="3.13"/><path class="cls-34" d="M297.87,137.69l1.25-2.83a7.85,7.85,0,0,0,3.8,1.06c1.11,0,1.5-.23,1.5-.63,0-1.45-6.37-.28-6.37-4.57,0-2.14,1.8-3.88,5.37-3.88a9.08,9.08,0,0,1,4.34,1l-1.17,2.81a7.14,7.14,0,0,0-3.21-.85c-1.13,0-1.49.33-1.49.72,0,1.38,6.36.23,6.36,4.48,0,2.1-1.79,3.88-5.36,3.88A10.31,10.31,0,0,1,297.87,137.69Z" transform="translate(-72.57 -12)"/><path class="cls-34" d="M317.25,136.61h-4.37l-.78,2h-3.94l5-11.52H317l5,11.52h-4Zm-1.07-2.8-1.12-2.89L314,133.81Z" transform="translate(-72.57 -12)"/><path class="cls-34" d="M322.66,127.1h3.89v8.5h5.2v3h-9.09Z" transform="translate(-72.57 -12)"/><path class="cls-34" d="M342.39,135.69v2.93h-9.57V127.1h9.36V130h-5.55v1.35h4.87v2.79h-4.87v1.52Z" transform="translate(-72.57 -12)"/><polygon class="cls-18" points="132.91 253.22 132.91 296.61 130.36 296.87 132.91 299.18 213.75 299.18 213.75 253.22 211.2 250.91 132.91 253.22"/><polygon class="cls-35" points="132.91 253.22 132.91 296.61 130.36 296.87 132.91 299.18 213.75 299.18 213.75 253.22 211.2 250.91 132.91 253.22"/><polygon class="cls-36" points="211.2 250.91 213.75 253.22 213.75 299.18 211.2 296.87 211.2 250.91"/><rect class="cls-37" x="130.36" y="250.91" width="80.84" height="45.96"/><g class="cls-38"><path class="cls-39" d="M238.29,290.38v0H253.4a1.17,1.17,0,0,0,1.11-.84l3.33-11.67a1.14,1.14,0,0,0-1.11-1.47h-20.1l-.54-2.43a1.16,1.16,0,0,0-1.13-.91h-5a1.16,1.16,0,0,0,0,2.32H234l2.9,13a2.82,2.82,0,0,0,1.26,5.29,2.82,2.82,0,1,0,3.55,0H250a2.8,2.8,0,0,0-1,2.17,2.83,2.83,0,1,0,4.58-2.19,1.15,1.15,0,0,0-.09-2.3H238.29a.51.51,0,1,1,0-1Zm13.44,6a.51.51,0,1,1,.51-.51A.51.51,0,0,1,251.73,296.39Zm-11.77-1a.51.51,0,1,1-.51.51A.51.51,0,0,1,240,295.37Zm-2.82-16.66H255.2l-2.67,9.35H239.22Z" transform="translate(-72.57 -12)"/></g><polygon class="cls-39" points="359.71 329.97 193.57 329.97 191.5 328.22 193.57 306.8 357.64 305.05 359.71 306.8 359.71 329.97"/><rect class="cls-40" x="191.5" y="305.05" width="166.14" height="23.17"/><polygon class="cls-35" points="357.64 305.05 359.71 306.8 359.71 329.97 357.64 328.22 357.64 305.05"/><polygon class="cls-36" points="191.5 328.22 357.64 328.22 359.71 329.97 193.57 329.97 191.5 328.22"/><path class="cls-19" d="M426.29,64.32A24.88,24.88,0,0,1,401.41,89.2a24.88,24.88,0,0,1,24.88,24.88A24.88,24.88,0,0,1,451.17,89.2,24.88,24.88,0,0,1,426.29,64.32Z" transform="translate(-72.57 -12)"/><path class="cls-19" d="M400,61.85a10.5,10.5,0,0,1-10.5,10.5A10.5,10.5,0,0,1,400,82.85a10.5,10.5,0,0,1,10.5-10.5A10.5,10.5,0,0,1,400,61.85Z" transform="translate(-72.57 -12)"/><polygon class="cls-41" points="417.82 284.35 465.01 280.87 453.65 268.22 374.72 268.22 363.37 280.87 410.55 284.35 410.55 284.88 414.19 284.61 417.82 284.88 417.82 284.35"/><rect class="cls-21" x="369" y="302.62" width="90.38" height="62.6"/><rect class="cls-39" x="406.27" y="302.62" width="15.82" height="62.6"/><rect class="cls-42" x="369" y="302.62" width="90.38" height="2.64"/><rect class="cls-21" x="363.37" y="280.87" width="101.64" height="21.75"/><rect class="cls-39" x="407.89" y="280.87" width="15.96" height="21.75"/><rect class="cls-43" x="407.89" y="280.87" width="15.96" height="21.75"/><line class="cls-39" x1="407.89" y1="302.62" x2="423.85" y2="302.62"/><path class="cls-39" d="M488.44,283.16a163.64,163.64,0,0,0-18.5,3.7c-5.15,1.35-16.64,3.46-17.72,10-.51,3-1,8.61.47,11.53,1.91,3.9,7.31,5,11.18,4.81,11.48-.41,21.66-9.1,24.57-20,.83-3.13-.82-6.91,0-10a27.32,27.32,0,0,1-18.82,19c-4.57,1.34-17,2.06-17.38-5.37v9.82c.53-6.3,13.6-8.74,18.15-9.91a165.72,165.72,0,0,1,18.06-3.59c.54-.08-.39-10,0-10Z" transform="translate(-72.57 -12)"/><path class="cls-39" d="M488.44,293.16a165.72,165.72,0,0,1,18.06,3.59c4.54,1.17,17.62,3.62,18.15,9.91v-9.82c-.42,7.43-12.81,6.71-17.39,5.37a27.29,27.29,0,0,1-18.81-19c.82,3.09-.83,6.87,0,10,2.91,10.92,13.09,19.61,24.57,20,3.87.15,9.27-.91,11.18-4.81,1.42-2.92,1-8.49.47-11.53-1.08-6.52-12.56-8.63-17.72-10a163.64,163.64,0,0,0-18.5-3.7c.39,0-.54,9.92,0,10Z" transform="translate(-72.57 -12)"/><path class="cls-39" d="M488.44,283.28a168.17,168.17,0,0,1-18.06-3.6c-4.54-1.17-17.62-3.62-18.15-9.91v9.82c.42-7.43,12.81-6.7,17.38-5.36a27.27,27.27,0,0,1,18.82,19c-.82-3.1.83-6.88,0-10-2.91-10.92-13.09-19.61-24.57-20-3.87-.14-9.27.91-11.18,4.82-1.42,2.91-1,8.49-.47,11.52,1.08,6.53,12.56,8.63,17.72,10a165.92,165.92,0,0,0,18.5,3.71c-.39-.06.54-9.93,0-10Z" transform="translate(-72.57 -12)"/><path class="cls-39" d="M488.44,293.28a165.92,165.92,0,0,0,18.5-3.71c5.15-1.35,16.64-3.46,17.72-10,.51-3,1-8.6-.47-11.52-1.91-3.91-7.31-5-11.18-4.82-11.48.42-21.66,9.11-24.57,20-.83,3.12.82,6.9,0,10a27.27,27.27,0,0,1,18.81-19c4.58-1.34,17-2.07,17.39,5.36v-9.82c-.53,6.3-13.61,8.74-18.15,9.91a168.17,168.17,0,0,1-18.06,3.6c-.54.07.39,9.94,0,10Z" transform="translate(-72.57 -12)"/><path class="cls-35" d="M441.56,370.3s68.51,5.84,90.38-21.51v28.43H441.56Z" transform="translate(-72.57 -12)"/><circle class="cls-44" cx="452.23" cy="357.27" r="19.95" transform="translate(-45.78 734.05) rotate(-80.73)"/><circle class="cls-45" cx="379.66" cy="345.27" r="16.79"/><circle class="cls-46" cx="379.66" cy="345.27" r="16.33"/><g class="cls-38"><path class="cls-19" d="M454,365.63v2.52h-2.25V365.7a10.62,10.62,0,0,1-5.6-1.8l1.24-2.74a9,9,0,0,0,4.36,1.59V359c-2.49-.61-5.28-1.44-5.28-4.66,0-2.39,1.73-4.43,5.28-4.84V347H454v2.45a10.09,10.09,0,0,1,4.57,1.37l-1.12,2.77a9,9,0,0,0-3.45-1.17v3.82c2.5.59,5.25,1.42,5.25,4.59C459.21,363.18,457.5,365.21,454,365.63Zm-2.25-9.94V352.5c-1.19.26-1.66.92-1.66,1.66S450.72,355.37,451.71,355.69Zm3.87,5.42c0-.79-.65-1.21-1.62-1.55v3.1C455.09,362.42,455.58,361.83,455.58,361.11Z" transform="translate(-72.57 -12)"/></g><path class="cls-19" d="M453.53,365.25v2.52h-2.25v-2.45a10.71,10.71,0,0,1-5.6-1.8l1.24-2.75a9,9,0,0,0,4.36,1.6v-3.76c-2.49-.6-5.28-1.44-5.28-4.65,0-2.39,1.73-4.43,5.28-4.84v-2.5h2.25v2.46a10.09,10.09,0,0,1,4.57,1.37L457,353.22a9,9,0,0,0-3.45-1.17v3.82c2.5.58,5.25,1.42,5.25,4.59C458.78,362.8,457.07,364.82,453.53,365.25Zm-2.25-9.94v-3.2c-1.19.27-1.66.93-1.66,1.67S450.29,355,451.28,355.31Zm3.87,5.42c0-.79-.65-1.22-1.62-1.55v3.1C454.66,362,455.15,361.45,455.15,360.73Z" transform="translate(-72.57 -12)"/><g class="cls-47"><g class="cls-48"><rect class="cls-49" x="449.46" y="339.95" width="9.77" height="43.03" transform="translate(472.85 -223.94) rotate(60.52)"/><polygon class="cls-49" points="361.56 353.68 358.32 350.7 395.78 329.52 399.02 332.51 361.56 353.68"/></g></g><path class="cls-21" d="M473.27,167.5l-25.74-27.62a3.16,3.16,0,0,0-2.06-1l-14.4-1a3.12,3.12,0,0,0-3.34,3l-.25,14.74a3.13,3.13,0,0,0,.83,2.18L454,185.43a3.12,3.12,0,0,0,4.4.15l14.68-13.69A3.1,3.1,0,0,0,473.27,167.5Zm-42.78-23a2.46,2.46,0,1,1,3.48.12A2.46,2.46,0,0,1,430.49,144.5Z" transform="translate(-72.57 -12)"/><g class="cls-38"><path class="cls-21" d="M446.84,152.11c2.31-2.16,5.05-2,6.89,0s1.81,4.74-.5,6.89-5.06,2-6.91,0S444.51,154.28,446.84,152.11Zm14.65,8.63h0a1.55,1.55,0,0,1-.91,2.59l-18.16,2.77a1.53,1.53,0,0,1-1.37-.48h0A1.55,1.55,0,0,1,442,163l18.17-2.77A1.57,1.57,0,0,1,461.49,160.74Zm-10.42-4.09c1.36-1.26,1.45-2.24.84-2.89s-1.58-.62-2.94.64-1.41,2.28-.84,2.89S449.72,157.92,451.07,156.65Zm-1.74,10.77c2.31-2.16,5-2,6.89,0s1.81,4.74-.5,6.89-5.06,2-6.91,0S447,169.59,449.33,167.42Zm4.23,4.54c1.36-1.26,1.43-2.26.85-2.89s-1.59-.63-3,.64-1.42,2.26-.84,2.89S452.21,173.23,453.56,172Z" transform="translate(-72.57 -12)"/></g><path class="cls-21" d="M409,109a14.79,14.79,0,0,0,2.39,14.88c2.28,2.65,5.36,3.85,8.37,5.49a24.68,24.68,0,0,1,11.44,13c.38.94,1.92.53,1.54-.42A26.41,26.41,0,0,0,423.88,130c-2.94-2.17-6.52-3.26-9.36-5.55-4.7-3.78-6-9.47-4-15.09.34-1-1.2-1.39-1.54-.43Z" transform="translate(-72.57 -12)"/><rect class="cls-50" x="474.84" y="368.87" width="35.69" height="8.35" transform="translate(912.8 734.1) rotate(180)"/><rect class="cls-51" x="474.84" y="368.87" width="35.69" height="1.2" transform="translate(912.8 726.95) rotate(180)"/><rect class="cls-52" x="505.96" y="368.87" width="1.55" height="8.35" transform="translate(940.91 734.1) rotate(180)"/><rect class="cls-52" x="501.28" y="368.87" width="1.55" height="8.35" transform="translate(931.54 734.1) rotate(180)"/><rect class="cls-52" x="496.59" y="368.87" width="1.55" height="8.35" transform="translate(922.17 734.1) rotate(180)"/><rect class="cls-53" x="491.91" y="368.87" width="1.55" height="8.35" transform="translate(912.8 734.1) rotate(180)"/><rect class="cls-53" x="487.22" y="368.87" width="1.55" height="8.35" transform="translate(903.43 734.1) rotate(180)"/><rect class="cls-53" x="482.54" y="368.87" width="1.55" height="8.35" transform="translate(894.06 734.1) rotate(180)"/><rect class="cls-53" x="477.86" y="368.87" width="1.55" height="8.35" transform="translate(884.69 734.1) rotate(180)"/><rect class="cls-54" x="477.25" y="368.87" width="19.53" height="8.35" transform="translate(901.46 734.1) rotate(180)"/><rect class="cls-55" x="477.25" y="368.87" width="4.95" height="8.35" transform="translate(886.89 734.1) rotate(180)"/><rect class="cls-56" x="517.48" y="368.87" width="35.69" height="8.35" transform="translate(998.09 734.1) rotate(180)"/><rect class="cls-51" x="517.48" y="368.87" width="35.69" height="1.2" transform="translate(998.09 726.95) rotate(180)"/><rect class="cls-52" x="548.61" y="368.87" width="1.55" height="8.35" transform="translate(1026.2 734.1) rotate(180)"/><rect class="cls-52" x="543.92" y="368.87" width="1.55" height="8.35" transform="translate(1016.83 734.1) rotate(180)"/><rect class="cls-52" x="539.24" y="368.87" width="1.55" height="8.35" transform="translate(1007.46 734.1) rotate(180)"/><rect class="cls-53" x="534.55" y="368.87" width="1.55" height="8.35" transform="translate(998.09 734.1) rotate(180)"/><rect class="cls-53" x="529.87" y="368.87" width="1.55" height="8.35" transform="translate(988.72 734.1) rotate(180)"/><rect class="cls-53" x="525.18" y="368.87" width="1.55" height="8.35" transform="translate(979.35 734.1) rotate(180)"/><rect class="cls-53" x="520.5" y="368.87" width="1.55" height="8.35" transform="translate(969.98 734.1) rotate(180)"/><rect class="cls-54" x="519.89" y="368.87" width="19.53" height="8.35" transform="translate(986.75 734.1) rotate(180)"/><rect class="cls-55" x="519.89" y="368.87" width="4.95" height="8.35" transform="translate(972.17 734.1) rotate(180)"/><rect class="cls-57" x="511.68" y="360.52" width="35.69" height="8.35" transform="translate(986.49 717.4) rotate(180)"/><rect class="cls-51" x="511.68" y="360.52" width="35.69" height="1.2" transform="translate(986.49 710.25) rotate(180)"/><rect class="cls-52" x="542.81" y="360.52" width="1.55" height="8.35" transform="translate(1014.6 717.4) rotate(180)"/><rect class="cls-52" x="538.12" y="360.52" width="1.55" height="8.35" transform="translate(1005.23 717.4) rotate(180)"/><rect class="cls-52" x="533.44" y="360.52" width="1.55" height="8.35" transform="translate(995.86 717.4) rotate(180)"/><rect class="cls-53" x="528.75" y="360.52" width="1.55" height="8.35" transform="translate(986.49 717.4) rotate(180)"/><rect class="cls-53" x="524.07" y="360.52" width="1.55" height="8.35" transform="translate(977.12 717.4) rotate(180)"/><rect class="cls-53" x="519.38" y="360.52" width="1.55" height="8.35" transform="translate(967.75 717.4) rotate(180)"/><rect class="cls-53" x="514.7" y="360.52" width="1.55" height="8.35" transform="translate(958.38 717.4) rotate(180)"/><rect class="cls-54" x="514.1" y="360.52" width="19.53" height="8.35" transform="translate(975.15 717.4) rotate(180)"/><rect class="cls-55" x="514.1" y="360.52" width="4.95" height="8.35" transform="translate(960.57 717.4) rotate(180)"/><rect class="cls-58" x="519.19" y="352.17" width="35.69" height="8.35" transform="translate(1001.49 700.7) rotate(180)"/><rect class="cls-51" x="519.19" y="352.17" width="35.69" height="1.2" transform="translate(1001.49 693.55) rotate(180)"/><rect class="cls-52" x="550.31" y="352.17" width="1.55" height="8.35" transform="translate(1029.6 700.7) rotate(180)"/><rect class="cls-52" x="545.62" y="352.17" width="1.55" height="8.35" transform="translate(1020.23 700.7) rotate(180)"/><rect class="cls-52" x="540.94" y="352.17" width="1.55" height="8.35" transform="translate(1010.86 700.7) rotate(180)"/><rect class="cls-53" x="536.26" y="352.17" width="1.55" height="8.35" transform="translate(1001.49 700.7) rotate(180)"/><rect class="cls-53" x="531.57" y="352.17" width="1.55" height="8.35" transform="translate(992.13 700.7) rotate(180)"/><rect class="cls-53" x="526.89" y="352.17" width="1.55" height="8.35" transform="translate(982.76 700.7) rotate(180)"/><rect class="cls-53" x="522.2" y="352.17" width="1.55" height="8.35" transform="translate(973.39 700.7) rotate(180)"/><rect class="cls-54" x="521.6" y="352.17" width="19.53" height="8.35" transform="translate(990.15 700.7) rotate(180)"/><rect class="cls-55" x="521.6" y="352.17" width="4.95" height="8.35" transform="translate(975.58 700.7) rotate(180)"/><rect class="cls-59" x="511.81" y="343.82" width="35.69" height="8.35" transform="translate(986.75 684) rotate(180)"/><rect class="cls-51" x="511.81" y="343.82" width="35.69" height="1.2" transform="translate(986.75 676.85) rotate(180)"/><rect class="cls-52" x="542.94" y="343.82" width="1.55" height="8.35" transform="translate(1014.86 684) rotate(180)"/><rect class="cls-52" x="538.25" y="343.82" width="1.55" height="8.35" transform="translate(1005.49 684) rotate(180)"/><rect class="cls-52" x="533.57" y="343.82" width="1.55" height="8.35" transform="translate(996.12 684) rotate(180)"/><rect class="cls-53" x="528.88" y="343.82" width="1.55" height="8.35" transform="translate(986.75 684) rotate(180)"/><rect class="cls-53" x="524.2" y="343.82" width="1.55" height="8.35" transform="translate(977.38 684) rotate(180)"/><rect class="cls-53" x="519.51" y="343.82" width="1.55" height="8.35" transform="translate(968.01 684) rotate(180)"/><rect class="cls-53" x="514.83" y="343.82" width="1.55" height="8.35" transform="translate(958.64 684) rotate(180)"/><rect class="cls-54" x="514.22" y="343.82" width="19.53" height="8.35" transform="translate(975.41 684) rotate(180)"/><rect class="cls-55" x="514.22" y="343.82" width="4.95" height="8.35" transform="translate(960.83 684) rotate(180)"/></g></g></svg>