<svg id="Layer_1" data-name="Layer 1" xmlns="http://www.w3.org/2000/svg" viewBox="0 0 640 500"><defs><style>.cls-1{fill:#c3cdd8;}.cls-2{fill:#58dbc0;}.cls-3{fill:#269981;}.cls-4{fill:#50c7ae;}.cls-5{fill:#76b8ff;}.cls-6{opacity:0.1;}.cls-22,.cls-32,.cls-33,.cls-35,.cls-38,.cls-39,.cls-7{fill:none;}.cls-7{stroke:#7d7d7d;stroke-width:2px;}.cls-22,.cls-32,.cls-33,.cls-35,.cls-38,.cls-7{stroke-miterlimit:10;}.cls-23,.cls-25,.cls-8{fill:#fff;}.cls-9{fill:#c2c2c2;}.cls-10{fill:#ebebeb;}.cls-11{fill:#5e5e5e;}.cls-12{fill:#5981d1;}.cls-13{fill:#404040;}.cls-14{fill:#4ba848;}.cls-15{fill:#46438f;}.cls-16,.cls-18{opacity:0.2;}.cls-17{fill:#524fa8;}.cls-19{fill:#4f4f4f;}.cls-20{fill:#757575;}.cls-21{fill:#858585;}.cls-22{stroke:#5981d1;stroke-width:0.5px;}.cls-23,.cls-25{font-size:18.45px;font-family:MyriadPro-Regular, Myriad Pro;}.cls-23,.cls-26{letter-spacing:0.1em;}.cls-24{fill:#424242;}.cls-25{letter-spacing:0.1em;}.cls-27{fill:#b8b8b8;}.cls-28{fill:#ffa6a6;}.cls-29{fill:#8f4376;}.cls-30{fill:#db2e2e;}.cls-31{fill:#fa9923;}.cls-32,.cls-35{stroke:#a16216;}.cls-33,.cls-38{stroke:#bd2828;}.cls-34{fill:#ffc7ba;}.cls-35,.cls-38{stroke-width:0.75px;}.cls-36{fill:#a16216;}.cls-37{letter-spacing:0.09em;}</style></defs><title>LandingPage_projectIcon</title><path class="cls-1" d="M557.43,65c-35.67,0-66.06,21.09-77.6,50.62a85.3,85.3,0,0,0-28.83-5,84.09,84.09,0,0,0-44,12.28c-8.14-19.1-28.13-32.61-51.52-32.61-20,0-37.44,9.83-47.2,24.58a126.77,126.77,0,0,0-72.3-22.25c-52.18,0-96.66,30.68-113.83,73.74a80.62,80.62,0,0,0-45-13.49C34.54,152.9,0,185.1,0,224.82c0,1.54.07,3.07.17,4.59l-.17,0V420H640V142C640,99.48,603,65,557.43,65Z" transform="translate(0 6)"/><path class="cls-2" d="M92.74,383.15s-16.48-56-5.68-62.53,11.37,17.92,24.44,19.19,13.36-23.08,26.43-21.85,12.49,31,19,32,12.84-15.29,24-11.94,2.91,46.68,2.91,46.68Z" transform="translate(0 6)"/><path class="cls-3" d="M91.28,329.81s4.93,35.9,16.48,54.9C107.76,384.71,98.1,346.48,91.28,329.81Z" transform="translate(0 6)"/><path class="cls-3" d="M135.06,384.71s-2.47-36.33,2.74-57.66C137.8,327.05,138.65,361.36,135.06,384.71Z" transform="translate(0 6)"/><path class="cls-3" d="M164.41,384.37s4.93-20.08,13.27-37.13C177.68,347.24,169.9,373.19,164.41,384.37Z" transform="translate(0 6)"/><path class="cls-3" d="M103.69,339.75a48.6,48.6,0,0,0-4.17,11.56S102.08,349.32,103.69,339.75Z" transform="translate(0 6)"/><path class="cls-3" d="M101.08,332.51a48.43,48.43,0,0,0-4.17,11.55S99.47,342.07,101.08,332.51Z" transform="translate(0 6)"/><path class="cls-3" d="M106.15,347.78A48.79,48.79,0,0,0,102,359.34S104.54,357.35,106.15,347.78Z" transform="translate(0 6)"/><path class="cls-3" d="M108.7,354.63a48.6,48.6,0,0,0-4.17,11.56S107.09,364.2,108.7,354.63Z" transform="translate(0 6)"/><path class="cls-3" d="M110.78,362.66a49.09,49.09,0,0,0-4.17,11.56S109.17,372.23,110.78,362.66Z" transform="translate(0 6)"/><path class="cls-3" d="M86.64,336.25s4.38,1.11,5.82,4.62C92.46,340.87,88.2,338.88,86.64,336.25Z" transform="translate(0 6)"/><path class="cls-3" d="M86.14,344.06a13.58,13.58,0,0,1,7.32,4.13A18.67,18.67,0,0,1,86.14,344.06Z" transform="translate(0 6)"/><path class="cls-3" d="M87.21,351.69A16.33,16.33,0,0,1,95.88,355S90.69,354.45,87.21,351.69Z" transform="translate(0 6)"/><path class="cls-3" d="M89.13,360.6A16.28,16.28,0,0,1,97.79,364S92.61,363.36,89.13,360.6Z" transform="translate(0 6)"/><path class="cls-3" d="M91.78,368.44a16.33,16.33,0,0,1,8.67,3.35S95.26,371.2,91.78,368.44Z" transform="translate(0 6)"/><path class="cls-3" d="M129.17,332.08s4.09.85,5.3,4.17A10.56,10.56,0,0,1,129.17,332.08Z" transform="translate(0 6)"/><path class="cls-3" d="M139.6,340.23s2.08-3,7.67-3.32C147.27,336.91,143.57,340.32,139.6,340.23Z" transform="translate(0 6)"/><path class="cls-3" d="M126.81,342.22a14.93,14.93,0,0,1,6.34,5S131,347.52,126.81,342.22Z" transform="translate(0 6)"/><path class="cls-3" d="M139.6,353.56a19.39,19.39,0,0,1,8.33-3.1S143.67,354,139.6,353.56Z" transform="translate(0 6)"/><path class="cls-3" d="M126.43,354.63s5.4,1.52,6.72,5.21C133.15,359.84,128.61,358.43,126.43,354.63Z" transform="translate(0 6)"/><path class="cls-3" d="M138.46,364a15.08,15.08,0,0,1,8.43-4.11S142.44,363.32,138.46,364Z" transform="translate(0 6)"/><path class="cls-3" d="M127.66,367.13a11.59,11.59,0,0,1,5.49,4.66S130.22,372.25,127.66,367.13Z" transform="translate(0 6)"/><path class="cls-4" d="M509.31,383.15s-16.49-56-5.69-62.53,11.37,17.92,24.44,19.19,13.36-23.08,26.43-21.85,12.49,31,19,32,12.84-15.29,24-11.94,2.91,46.68,2.91,46.68Z" transform="translate(0 6)"/><path class="cls-3" d="M507.84,329.81s4.93,35.9,16.49,54.9C524.33,384.71,514.66,346.48,507.84,329.81Z" transform="translate(0 6)"/><path class="cls-3" d="M551.63,384.71s-2.48-36.33,2.73-57.66C554.36,327.05,555.21,361.36,551.63,384.71Z" transform="translate(0 6)"/><path class="cls-3" d="M581,384.37s4.93-20.08,13.27-37.13C594.24,347.24,586.46,373.19,581,384.37Z" transform="translate(0 6)"/><path class="cls-3" d="M520.25,339.75a49.09,49.09,0,0,0-4.17,11.56S518.64,349.32,520.25,339.75Z" transform="translate(0 6)"/><path class="cls-3" d="M517.64,332.51a48.43,48.43,0,0,0-4.17,11.55S516,342.07,517.64,332.51Z" transform="translate(0 6)"/><path class="cls-3" d="M522.72,347.78a48.6,48.6,0,0,0-4.17,11.56S521.1,357.35,522.72,347.78Z" transform="translate(0 6)"/><path class="cls-3" d="M525.26,354.63a48.6,48.6,0,0,0-4.17,11.56S523.65,364.2,525.26,354.63Z" transform="translate(0 6)"/><path class="cls-3" d="M527.34,362.66a49.09,49.09,0,0,0-4.17,11.56S525.73,372.23,527.34,362.66Z" transform="translate(0 6)"/><path class="cls-3" d="M503.2,336.25s4.39,1.11,5.83,4.62C509,340.87,504.76,338.88,503.2,336.25Z" transform="translate(0 6)"/><path class="cls-3" d="M502.7,344.06a13.58,13.58,0,0,1,7.32,4.13A18.67,18.67,0,0,1,502.7,344.06Z" transform="translate(0 6)"/><path class="cls-3" d="M503.77,351.69a16.33,16.33,0,0,1,8.67,3.35S507.25,354.45,503.77,351.69Z" transform="translate(0 6)"/><path class="cls-3" d="M505.69,360.6a16.33,16.33,0,0,1,8.67,3.35S509.17,363.36,505.69,360.6Z" transform="translate(0 6)"/><path class="cls-3" d="M508.34,368.44a16.33,16.33,0,0,1,8.67,3.35S511.82,371.2,508.34,368.44Z" transform="translate(0 6)"/><path class="cls-3" d="M545.74,332.08s4.08.85,5.3,4.17A10.52,10.52,0,0,1,545.74,332.08Z" transform="translate(0 6)"/><path class="cls-3" d="M556.16,340.23s2.08-3,7.67-3.32C563.83,336.91,560.13,340.32,556.16,340.23Z" transform="translate(0 6)"/><path class="cls-3" d="M543.37,342.22a15,15,0,0,1,6.35,5S547.54,347.52,543.37,342.22Z" transform="translate(0 6)"/><path class="cls-3" d="M556.16,353.56a19.39,19.39,0,0,1,8.33-3.1S560.23,354,556.16,353.56Z" transform="translate(0 6)"/><path class="cls-3" d="M543,354.63s5.4,1.52,6.73,5.21C549.72,359.84,545.17,358.43,543,354.63Z" transform="translate(0 6)"/><path class="cls-3" d="M555,364a15.08,15.08,0,0,1,8.43-4.11S559,363.32,555,364Z" transform="translate(0 6)"/><path class="cls-3" d="M544.22,367.13a11.6,11.6,0,0,1,5.5,4.66S546.78,372.25,544.22,367.13Z" transform="translate(0 6)"/><rect class="cls-5" y="363.86" width="640" height="67.14"/><ellipse class="cls-6" cx="431.62" cy="417.33" rx="38.91" ry="4.33"/><path class="cls-7" d="M481.83,412.33c-44.66,0-32.43-15.37-56-39.25-23.1-23.41-58.33-12.61-90.21-2.34" transform="translate(0 6)"/><ellipse class="cls-6" cx="322.92" cy="410.24" rx="86.84" ry="4.33"/><ellipse class="cls-6" cx="516.09" cy="426.41" rx="51.44" ry="4.33"/><path class="cls-8" d="M484.89,419.6h54.84c12.16,0,15.16-4.79,15.16-12.41s-22.79-15-38.16-15c-19.13,0-30.38,7.12-35.67,11.15C471.89,410.33,471.06,419.6,484.89,419.6Z" transform="translate(0 6)"/><path class="cls-9" d="M516.73,392.19l-1.22,0a23.59,23.59,0,0,0-13.08,12l.93.38c0-.1,4.37-10.29,16-12.28C518.45,392.21,517.58,392.19,516.73,392.19Z" transform="translate(0 6)"/><path class="cls-10" d="M538.1,409.44c-6.37-1-23.75-8.88-33.62-7.13a121.54,121.54,0,0,0-30,9.88c-.82,4.13,2.22,7.41,10.45,7.41h54.84c11.53,0,14.82-4.3,15.13-11.25A39.52,39.52,0,0,1,538.1,409.44Z" transform="translate(0 6)"/><path class="cls-8" d="M348.7,374.11V323.33H303.3v50.78a16.58,16.58,0,0,1-16.58,16.58H255.14a6.68,6.68,0,0,0-6.68,6.67v5.13H403.54v-5.13a6.68,6.68,0,0,0-6.68-6.67H365.28A16.58,16.58,0,0,1,348.7,374.11Z" transform="translate(0 6)"/><rect class="cls-10" x="303.3" y="329.33" width="45.4" height="17.67"/><rect class="cls-8" x="170" y="122.51" width="312" height="215.39" rx="14.24"/><rect class="cls-11" x="181.59" y="133.67" width="288.81" height="179.34" rx="7.7"/><path class="cls-12" d="M189.3,133.67H462.7a7.7,7.7,0,0,1,7.7,7.7V146a0,0,0,0,1,0,0H181.59a0,0,0,0,1,0,0v-4.63a7.7,7.7,0,0,1,7.7-7.7Z"/><path class="cls-8" d="M192.45,133.83a2.79,2.79,0,1,1-2.79-2.78A2.79,2.79,0,0,1,192.45,133.83Z" transform="translate(0 6)"/><path class="cls-8" d="M202.2,133.83a2.79,2.79,0,1,1-2.79-2.78A2.79,2.79,0,0,1,202.2,133.83Z" transform="translate(0 6)"/><path class="cls-8" d="M212,133.83a2.79,2.79,0,1,1-2.79-2.78A2.79,2.79,0,0,1,212,133.83Z" transform="translate(0 6)"/><rect class="cls-13" x="197.52" y="259.99" width="11.25" height="3"/><rect class="cls-13" x="197.52" y="266.49" width="11.25" height="3"/><rect class="cls-13" x="197.52" y="288.19" width="14.25" height="3"/><rect class="cls-13" x="214.77" y="288.19" width="8.53" height="3"/><rect class="cls-14" x="226.3" y="288.19" width="19.39" height="3"/><rect class="cls-13" x="248.69" y="288.19" width="19.39" height="3"/><rect class="cls-13" x="197.52" y="281.69" width="25.78" height="3"/><rect class="cls-14" x="197.52" y="294.69" width="17.25" height="3"/><rect class="cls-13" x="217.68" y="294.69" width="5.62" height="3"/><rect class="cls-13" x="226.3" y="294.69" width="5.62" height="3"/><rect class="cls-13" x="234.88" y="294.69" width="33.19" height="3"/><rect class="cls-13" x="255.6" y="281.69" width="47.5" height="3"/><rect class="cls-13" x="226.3" y="281.69" width="16.39" height="3"/><rect class="cls-14" x="245.69" y="281.69" width="6.92" height="3"/><rect class="cls-12" x="211.77" y="266.49" width="91.33" height="3"/><rect class="cls-13" x="211.77" y="259.99" width="13.42" height="3"/><rect class="cls-13" x="228.19" y="259.99" width="38.96" height="3"/><rect class="cls-13" x="270.14" y="259.99" width="32.96" height="3"/><rect class="cls-13" x="197.52" y="253.49" width="105.58" height="3"/><rect class="cls-13" x="348.9" y="259.99" width="11.25" height="3"/><rect class="cls-13" x="348.9" y="266.49" width="11.25" height="3"/><rect class="cls-13" x="348.9" y="288.19" width="14.25" height="3"/><rect class="cls-13" x="366.15" y="288.19" width="8.53" height="3"/><rect class="cls-14" x="377.68" y="288.19" width="19.39" height="3"/><rect class="cls-13" x="400.06" y="288.19" width="19.39" height="3"/><rect class="cls-13" x="348.9" y="281.69" width="25.78" height="3"/><rect class="cls-14" x="348.9" y="294.69" width="17.25" height="3"/><rect class="cls-13" x="369.05" y="294.69" width="5.63" height="3"/><rect class="cls-13" x="377.68" y="294.69" width="5.63" height="3"/><rect class="cls-13" x="386.26" y="294.69" width="33.19" height="3"/><rect class="cls-13" x="406.98" y="281.69" width="47.5" height="3"/><rect class="cls-13" x="377.68" y="281.69" width="16.39" height="3"/><rect class="cls-14" x="397.06" y="281.69" width="6.92" height="3"/><rect class="cls-12" x="363.15" y="266.49" width="91.33" height="3"/><rect class="cls-13" x="363.15" y="259.99" width="13.42" height="3"/><rect class="cls-13" x="379.56" y="259.99" width="38.96" height="3"/><rect class="cls-13" x="421.52" y="259.99" width="32.96" height="3"/><rect class="cls-13" x="348.9" y="253.49" width="105.58" height="3"/><rect class="cls-10" x="248.46" y="403.31" width="155.09" height="5.18"/><rect class="cls-15" x="402.73" y="397.41" width="57.78" height="4.67"/><rect class="cls-15" x="399.25" y="352.8" width="4.43" height="64.54"/><rect class="cls-15" x="459.55" y="352.8" width="4.43" height="64.54"/><g class="cls-16"><rect x="399.25" y="352.8" width="4.43" height="5.56"/><rect x="459.55" y="352.8" width="4.43" height="5.56"/></g><rect class="cls-17" x="394.48" y="346.42" width="74.27" height="7.12"/><rect class="cls-15" x="394.48" y="350.68" width="74.27" height="2.86"/><rect class="cls-15" x="402.73" y="361.03" width="57.78" height="4.67"/><rect class="cls-15" x="402.73" y="373.16" width="57.78" height="4.67"/><rect class="cls-18" x="403.69" y="361.03" width="5" height="4.67"/><rect class="cls-18" x="403.69" y="373.16" width="5" height="4.67"/><rect class="cls-18" x="454.55" y="361.03" width="5" height="4.67"/><rect class="cls-18" x="454.55" y="373.16" width="5" height="4.67"/><rect class="cls-15" x="402.73" y="385.28" width="57.78" height="4.67"/><rect class="cls-18" x="403.69" y="385.28" width="5" height="4.67"/><rect class="cls-18" x="403.69" y="397.41" width="5" height="4.67"/><rect class="cls-18" x="454.55" y="385.28" width="5" height="4.67"/><rect class="cls-18" x="454.55" y="397.41" width="5" height="4.67"/><line class="cls-7" x1="326" y1="155" x2="326" y2="306.5"/><rect class="cls-19" x="348.9" y="162.08" width="108.66" height="59"/><rect class="cls-20" x="348.9" y="159.5" width="108.66" height="59"/><rect class="cls-21" x="348.9" y="159.5" width="23.44" height="59"/><rect class="cls-8" x="348.9" y="159.5" width="108.66" height="7.61"/><line class="cls-22" x1="354.88" y1="162.14" x2="358.54" y2="162.14"/><line class="cls-22" x1="354.88" y1="163.31" x2="358.54" y2="163.31"/><line class="cls-22" x1="354.88" y1="164.47" x2="358.54" y2="164.47"/><text class="cls-23" transform="translate(376.56 196.09)">A I</text><polygon class="cls-24" points="351.11 164.26 350.48 163.17 351.11 162.08 352.37 162.08 353 163.17 352.37 164.26 351.11 164.26"/><polygon class="cls-24" points="351.11 217.01 350.48 215.92 351.11 214.83 352.37 214.83 353 215.92 352.37 217.01 351.11 217.01"/><polygon class="cls-24" points="454.41 164.26 453.78 163.17 454.41 162.08 455.67 162.08 456.31 163.17 455.67 164.26 454.41 164.26"/><polygon class="cls-24" points="454.41 217.01 453.78 215.92 454.41 214.83 455.67 214.83 456.31 215.92 455.67 217.01 454.41 217.01"/><rect class="cls-19" x="198.75" y="162.08" width="108.66" height="59"/><rect class="cls-20" x="198.75" y="159.5" width="108.66" height="59"/><rect class="cls-21" x="198.75" y="159.5" width="23.44" height="59"/><rect class="cls-8" x="198.75" y="159.5" width="108.66" height="7.61"/><line class="cls-22" x1="204.73" y1="162.14" x2="208.39" y2="162.14"/><line class="cls-22" x1="204.73" y1="163.31" x2="208.39" y2="163.31"/><line class="cls-22" x1="204.73" y1="164.47" x2="208.39" y2="164.47"/><text class="cls-25" transform="translate(224.14 196.17)">R<tspan class="cls-26" x="11.85" y="0">obotics</tspan></text><polygon class="cls-24" points="200.96 164.26 200.33 163.17 200.96 162.08 202.22 162.08 202.85 163.17 202.22 164.26 200.96 164.26"/><polygon class="cls-24" points="200.96 217.01 200.33 215.92 200.96 214.83 202.22 214.83 202.85 215.92 202.22 217.01 200.96 217.01"/><polygon class="cls-24" points="304.26 164.26 303.63 163.17 304.26 162.08 305.52 162.08 306.15 163.17 305.52 164.26 304.26 164.26"/><polygon class="cls-24" points="304.26 217.01 303.63 215.92 304.26 214.83 305.52 214.83 306.15 215.92 305.52 217.01 304.26 217.01"/><polygon class="cls-27" points="456.37 162.73 454.79 163.3 456.79 165.3 456.41 166.72 454.99 167.1 452.99 165.1 452.42 166.69 454.54 168.8 456.75 168.21 461.54 173 462.69 171.85 457.89 167.06 458.49 164.85 456.37 162.73"/><path class="cls-28" d="M462.37,161.36a2.32,2.32,0,0,0-.74-.21h0a6.31,6.31,0,0,0-3,.65l.82.81c-.22.32-.42.64-.62.9-.47.61-1.57-.79-1.57-.79-2.55,5.61.86,7.67.86,7.67l.2,1.75s6.87,3.46,6.7-1.11S464.3,162.28,462.37,161.36Z" transform="translate(0 6)"/><path class="cls-28" d="M427,185.83l4.36,5.49-1.31,1s3.17,5.84,2.49,7.27a4.12,4.12,0,0,1-2.72,1.8l1.23,4.73-10.51,2.05-.38-4.35s-5.9-3-7.71-6.84Z" transform="translate(0 6)"/><path class="cls-29" d="M428.24,202.55c.5-1.12.56-6.34.56-6.34s-3.17-1.49-2.93-3.05a2.29,2.29,0,0,1,1.75-1.84l-1.94-4.48L412.44,197c1.81,3.86,7.71,6.84,7.71,6.84S427.74,203.67,428.24,202.55Z" transform="translate(0 6)"/><path class="cls-30" d="M415,209.21c4.94-1.16,25.2-3,40.54-13.43,0,0,4.06-16,2.74-23.65,0,0,3.45-3,6.7-1.11,0,0,1.33,27.53-1.93,32.3s-19.2,17.17-19.2,17.17,4.37,32,5,41.14,3.56,72.84,3.56,72.84l11.58,7s-14.63,1.12-20.83,0l1-6.5s-7.92-50.78-12.59-62.05c0,0-12.6,54.63-16,62.15l9.15,5.48-21-.3,3.25-5.59,8.53-72.33-2.23-30.78S401.83,249.29,402,269.3c0,0,3.71,6.17,3.11,7.09s-1.81.13-1.81.13,1.2,4.08-.69,5c-.82.41-5.48.31-6.4-11,0,0-.71-17.27,2.74-31.59S405.08,211.55,415,209.21Z" transform="translate(0 6)"/><path class="cls-31" d="M452.42,334.47s-2.95-63.7-3.56-72.84c-.41-6.22-2.56-23-3.9-33.11-2.9-1.27-4.86-5.38-5.22-6.19l-3.17-18.12-5.07,1.45L433.63,223l-11.26,1.57-1.89-16.88-4.87,1.36,1.23,17.13a15.52,15.52,0,0,1-3.32,8.26l2,27.87L407,334.67l-3.25,5.59,21,.3-9.15-5.48c3.36-7.52,16-60.63,16-60.63,4.67,11.28,12.57,60.53,12.57,60.53l-1,6.5c6.2,1.12,20.83,0,20.83,0Z" transform="translate(0 6)"/><path class="cls-28" d="M396.32,271.42c1.08,10.43,5.52,10.52,6.32,10.12,1.89-.94.69-5,.69-5s1.2.78,1.81-.13S402,269.3,402,269.3,399.51,271.89,396.32,271.42Z" transform="translate(0 6)"/><path class="cls-30" d="M443.17,341.48c6.2,1.12,20.83,0,20.83,0l-11.58-7-8.23.51Z" transform="translate(0 6)"/><polygon class="cls-30" points="424.79 346.56 415.64 341.08 407.01 340.67 403.76 346.26 424.79 346.56"/><path class="cls-32" d="M413.65,236.32s3.51-2.06,5.55-9.73l19-2.36s2.58,6.08,7.17,7.75" transform="translate(0 6)"/><path class="cls-32" d="M417.25,263.24h10.54s.41,7.66-5.41,7.94C415.92,271.49,417.25,263.24,417.25,263.24Z" transform="translate(0 6)"/><path class="cls-32" d="M434.24,263.24l11.17-1.54s.36,6.67-4.41,7.43C434.24,270.2,434.24,263.24,434.24,263.24Z" transform="translate(0 6)"/><path class="cls-18" d="M413,198h0c.13,0,8.2,1.76,16-9.62L427,185.83l-14,10.78Z" transform="translate(0 6)"/><path class="cls-30" d="M421.58,181.16s2.24-4,5.6-2.92,2,7.21-.31,10.82-6.72,9.27-14.3,8.95c0,0-3.86-3.48-3.73-7.46s8.64-10.82,8.64-10.82Z" transform="translate(0 6)"/><path class="cls-18" d="M423,179.43a8.3,8.3,0,0,0-1.39,1.73s4.42.79,5,5.09C426.57,186.25,426,181,423,179.43Z" transform="translate(0 6)"/><path class="cls-18" d="M413.31,231.56l1.21,16.73c2.23-8,.78-19.45.78-19.45A18.6,18.6,0,0,0,413.31,231.56Z" transform="translate(0 6)"/><path class="cls-33" d="M458.49,173.39s2.24-2.76,6.59-.92" transform="translate(0 6)"/><path class="cls-33" d="M402,267.9a12.19,12.19,0,0,1-5.82,2.19" transform="translate(0 6)"/><line class="cls-32" x1="444.04" y1="339.26" x2="452.36" y2="338.78"/><line class="cls-32" x1="407.23" y1="338.78" x2="416.34" y2="339.26"/><path class="cls-18" d="M425.93,297.76c3.13-12.53,5.69-23.31,5.69-23.31l-8.47-2.27C425.58,279.82,426,290.53,425.93,297.76Z" transform="translate(0 6)"/><ellipse class="cls-6" cx="259.1" cy="426.47" rx="20.13" ry="4.33"/><ellipse class="cls-6" cx="157.52" cy="426.47" rx="20.13" ry="4.33"/><path class="cls-6" d="M133.41,419.93c0,1.92-7.24,3.48-16.17,3.48s-16.16-1.56-16.16-3.48,7.23-3.48,16.16-3.48S133.41,418,133.41,419.93Z" transform="translate(0 6)"/><path class="cls-6" d="M235.32,419.93c0,1.92-7.24,3.48-16.17,3.48S203,421.85,203,419.93s7.23-3.48,16.16-3.48S235.32,418,235.32,419.93Z" transform="translate(0 6)"/><path class="cls-31" d="M234.52,338l5.75,27.37s-15.33,25.13-18.53,28-5,4.68-5,4.68,5.21,7.78,17.14,13.1c0,0-3.33-9.05-4.06-12.89S250,377,254.22,371.66s-8.94-29.82-8.94-29.82Z" transform="translate(0 6)"/><path class="cls-18" d="M254.22,371.66c4.26-5.32-8.94-29.82-8.94-29.82L234.52,338l4,19.09,10.28,20.14A71.52,71.52,0,0,0,254.22,371.66Z" transform="translate(0 6)"/><path class="cls-34" d="M257.94,252.74l2.88,7.46-2.22.59s1,5-.13,6.15-5.22,1.31-5.39,2.16-1,6.29-1,6.29l-8.71-.59s1.38-8.12.59-11.39-2.62-8.9-2.62-8.9Z" transform="translate(0 6)"/><path class="cls-31" d="M258.59,404.25s5.75-33.09,5.54-40S253.05,332,253.05,332s6.53-38.41,4.83-47.07-4.47-10.8-11.5-11.43c-4-.35-8.17,1.78-10.08,7.88s-4.69,32.16-4.69,32.16-2.56,5.26-1.56,16,16.54,30.67,19.31,37.56-1.49,37.41-1.49,37.41c-.36,2.49-1.85,7.6-1.85,7.6s12.92,1.85,23.72,1.21Z" transform="translate(0 6)"/><path class="cls-35" d="M256.73,306.81l-7.54-1-.68,6.82a3.79,3.79,0,0,0,2.46,3.93l4.25,1.57" transform="translate(0 6)"/><path class="cls-30" d="M246.38,273.54c-4-.35-8.17,1.78-10.08,7.88a59,59,0,0,0-1.41,6.75h1.76s1.9-10.72,10.29-10.72,8.31,11.29,8.31,11.29h2.91a21.92,21.92,0,0,0-.28-3.77C256.17,276.31,253.41,274.17,246.38,273.54Z" transform="translate(0 6)"/><path class="cls-29" d="M249,257.62v-3.93l-7.72.82s1.84,5.63,2.62,8.9a15.94,15.94,0,0,1,.22,4A7,7,0,0,0,249,263c-1.84-.1-2.28-3.54-2-4.82S249,257.62,249,257.62Z" transform="translate(0 6)"/><path class="cls-36" d="M269.74,413.34l-11.15-9.09-10.78.63c-.43,2.58-1.79,7.25-1.79,7.25S258.94,414,269.74,413.34Z" transform="translate(0 6)"/><path class="cls-36" d="M233.88,411.17s-3.33-9.05-4.06-12.89a1.18,1.18,0,0,1,0-.42h0l-8.08-4.46c-3.19,2.87-5,4.68-5,4.68S222,405.85,233.88,411.17Z" transform="translate(0 6)"/><line class="cls-35" x1="248.23" y1="407.77" x2="259.1" y2="407.26"/><line class="cls-35" x1="222.98" y1="397.97" x2="230.48" y2="402.26"/><path class="cls-18" d="M257.94,252.74l-16.63,1.77s.33,1,.75,2.36l17.06-1.08Z" transform="translate(0 6)"/><path class="cls-30" d="M241.45,256l24.48-3.41-8-1.57-4.25-8.38S244.2,244,241.45,247,241.45,256,241.45,256Z" transform="translate(0 6)"/><path class="cls-31" d="M132.94,338l5.76,27.37s-15.34,25.13-18.53,28-5,4.68-5,4.68,5.22,7.78,17.15,13.1c0,0-3.34-9.05-4.07-12.89s20.15-21.29,24.41-26.62-9-29.82-9-29.82Z" transform="translate(0 6)"/><path class="cls-18" d="M152.65,371.66c4.26-5.32-9-29.82-9-29.82L132.94,338l4,19.09,10.28,20.14A75.5,75.5,0,0,0,152.65,371.66Z" transform="translate(0 6)"/><path class="cls-34" d="M156.37,252.74l4.41,7.45-3.76.6s.74,2.81-.43,3.93-4.91,3.53-5.09,4.38-1,6.29-1,6.29l-8.7-.59s1.37-8.12.59-11.39-2.62-8.9-2.62-8.9Z" transform="translate(0 6)"/><path class="cls-31" d="M157,404.25s5.75-33.09,5.54-40S151.48,332,151.48,332,158,293.63,156.3,285s-4.47-10.8-11.5-11.43c-4-.35-8.16,1.78-10.08,7.88S130,313.58,130,313.58s-2.55,5.26-1.56,16,16.54,30.67,19.31,37.56-1.49,37.41-1.49,37.41c-.35,2.49-1.84,7.6-1.84,7.6s12.92,1.85,23.71,1.21Z" transform="translate(0 6)"/><path class="cls-35" d="M155.16,306.81l-7.54-1-.68,6.82a3.79,3.79,0,0,0,2.45,3.93l4.25,1.57" transform="translate(0 6)"/><path class="cls-30" d="M144.8,273.54c-4-.35-8.16,1.78-10.08,7.88a57.27,57.27,0,0,0-1.4,6.75h1.75s1.9-10.72,10.3-10.72,8.31,11.29,8.31,11.29h2.91a21.77,21.77,0,0,0-.29-3.77C154.6,276.31,151.83,274.17,144.8,273.54Z" transform="translate(0 6)"/><path class="cls-29" d="M147.46,257.62v-3.93l-7.57.8a71.39,71.39,0,0,1-.5,9.42c-.14,1,3.25,1.94,3.18,3.47a7,7,0,0,0,4.89-4.36c-1.84-.1-2.29-3.54-2-4.82S147.46,257.62,147.46,257.62Z" transform="translate(0 6)"/><path class="cls-36" d="M168.16,413.34,157,404.25l-10.77.63c-.43,2.58-1.79,7.25-1.79,7.25S157.37,414,168.16,413.34Z" transform="translate(0 6)"/><path class="cls-36" d="M132.31,411.17s-3.34-9.05-4.07-12.89a1.47,1.47,0,0,1,0-.42h0l-8.07-4.46c-3.2,2.87-5,4.68-5,4.68S120.38,405.85,132.31,411.17Z" transform="translate(0 6)"/><line class="cls-35" x1="146.65" y1="407.77" x2="157.52" y2="407.26"/><line class="cls-35" x1="121.41" y1="397.97" x2="128.91" y2="402.26"/><path class="cls-18" d="M156.37,252.74l-16.63,1.77a10.53,10.53,0,0,1,.14,2.36l18.22-1.2Z" transform="translate(0 6)"/><path class="cls-30" d="M139.87,256l24.48-3.41-8-1.57-4.26-8.38S142.62,244,139.87,247,139.87,256,139.87,256Z" transform="translate(0 6)"/><path class="cls-29" d="M157.27,261.2l-3.11.26a1.89,1.89,0,0,0-1.72,1.74l-.38,5.32,6.2-.57Z" transform="translate(0 6)"/><rect class="cls-20" x="131.29" y="297.69" width="131.23" height="45.29"/><text class="cls-23" transform="translate(154.48 326.22)">&lt;<tspan class="cls-37" x="12.84" y="0">c</tspan><tspan x="22.85" y="0">ode/:&gt;</tspan></text><rect class="cls-12" x="131.29" y="297.69" width="131.23" height="7.22"/><path class="cls-8" d="M139.73,295.3a1.78,1.78,0,1,1-1.78-1.77A1.78,1.78,0,0,1,139.73,295.3Z" transform="translate(0 6)"/><path class="cls-8" d="M146.73,295.3a1.78,1.78,0,1,1-1.78-1.77A1.78,1.78,0,0,1,146.73,295.3Z" transform="translate(0 6)"/><path class="cls-8" d="M153.73,295.3a1.78,1.78,0,1,1-1.78-1.77A1.78,1.78,0,0,1,153.73,295.3Z" transform="translate(0 6)"/><g class="cls-16"><path d="M236.14,291.69c-1.81,5.94-3.8,15-1.7,20.55,3,7.81,16,19.66,16,19.66-.85,3.53-.5,4.89-.44,5.08h8.17a21.61,21.61,0,0,0-1.27-6.5c-1.42-4.12-12.13-21.51-12.13-21.51s2.6-12.08,3.86-17.28Z" transform="translate(0 6)"/><path d="M155.3,330.48c-1.42-4.12-12.13-21.51-12.13-21.51s2.6-12.08,3.86-17.28H134.56c-1.8,5.94-3.79,15-1.69,20.55,3,7.81,16,19.66,16,19.66-.85,3.53-.5,4.89-.43,5.08h8.17A21.71,21.71,0,0,0,155.3,330.48Z" transform="translate(0 6)"/></g><path class="cls-30" d="M246.53,280.57c5.17.11,5.24,5.89,4.25,9.59S246.53,309,246.53,309s10.71,17.39,12.13,21.51a20.74,20.74,0,0,1,1.28,7.53s-5.68,4.19-10.58-1h2.41s-.49-1.27.43-5.11c0,0-13-11.85-16-19.66s2.28-22.87,3.55-25.85S243.27,280.5,246.53,280.57Z" transform="translate(0 6)"/><path class="cls-34" d="M259.94,338a20.74,20.74,0,0,0-1.28-7.53c-.09-.25-.21-.55-.36-.89l-6.1,2.31c-.92,3.84-.43,5.11-.43,5.11h-2.41C254.26,342.2,259.94,338,259.94,338Z" transform="translate(0 6)"/><line class="cls-38" x1="257.07" y1="333.07" x2="249.78" y2="335.59"/><path class="cls-30" d="M145,280.57c5.18.11,5.25,5.89,4.25,9.59S145,309,145,309s10.71,17.39,12.13,21.51a20.74,20.74,0,0,1,1.28,7.53s-5.68,4.19-10.58-1h2.42s-.5-1.27.42-5.11c0,0-13-11.85-16-19.66s2.27-22.87,3.55-25.85S141.69,280.5,145,280.57Z" transform="translate(0 6)"/><path class="cls-34" d="M158.36,338a20.74,20.74,0,0,0-1.28-7.53,9.4,9.4,0,0,0-.35-.89l-6.11,2.31c-.92,3.84-.42,5.11-.42,5.11h-2.42C152.68,342.2,158.36,338,158.36,338Z" transform="translate(0 6)"/><line class="cls-38" x1="155.49" y1="333.07" x2="148.2" y2="335.59"/><rect class="cls-39" x="76" width="500" height="500"/></svg>